<svg width="8" height="12" viewBox="0 0 8 12" fill="none" xmlns="http://www.w3.org/2000/svg">
<path d="M5.15544 6.00254L0.666265 1.51317C0.542655 1.38985 0.474656 1.22498 0.474656 1.04917C0.474656 0.873268 0.542655 0.708488 0.666265 0.584976L1.05963 0.191805C1.18305 0.0680976 1.34802 0 1.52383 0C1.69963 0 1.86441 0.0680976 1.98792 0.191805L7.333 5.53678C7.457 5.66068 7.5249 5.82624 7.52441 6.00224C7.5249 6.17902 7.45709 6.34439 7.333 6.46839L1.9929 11.8082C1.86939 11.9319 1.70461 12 1.5287 12C1.3529 12 1.18812 11.9319 1.06451 11.8082L0.671241 11.415C0.415339 11.1591 0.415339 10.7425 0.671241 10.4867L5.15544 6.00254Z" fill="#FFAFCC"/>
</svg>
