<svg width="15" height="16" viewBox="0 0 15 16" fill="none" xmlns="http://www.w3.org/2000/svg">
<g clip-path="url(#clip0_518_2707)">
<path d="M13.1183 6.66669C13.1183 11.3334 7.56987 15.3334 7.56987 15.3334C7.56987 15.3334 2.02148 11.3334 2.02148 6.66669C2.02148 5.07539 2.60604 3.54926 3.64657 2.42405C4.68709 1.29883 6.09835 0.666687 7.56987 0.666687C9.0414 0.666687 10.4526 1.29883 11.4932 2.42405C12.5337 3.54926 13.1183 5.07539 13.1183 6.66669Z" stroke="#FFAFCC" stroke-width="2" stroke-linecap="round" stroke-linejoin="round"/>
<path d="M7.57017 8.66669C8.5916 8.66669 9.41963 7.77126 9.41963 6.66669C9.41963 5.56212 8.5916 4.66669 7.57017 4.66669C6.54874 4.66669 5.7207 5.56212 5.7207 6.66669C5.7207 7.77126 6.54874 8.66669 7.57017 8.66669Z" stroke="#FFAFCC" stroke-width="2" stroke-linecap="round" stroke-linejoin="round"/>
</g>
<defs>
<clipPath id="clip0_518_2707">
<path d="M0.171875 0H14.9676V8.60215C14.9676 12.6879 11.6554 16 7.56973 16C3.484 16 0.171875 12.6879 0.171875 8.60215V0Z" fill="white"/>
</clipPath>
</defs>
</svg>
